# Blender v2.76 (sub 0) OBJ File: ''
# www.blender.org
mtllib lyktstolpe.mtl
o lyktstolpe
v -0.015122 0.999863 -0.024782
v -0.015478 0.999881 0.024555
v 0.014995 0.999804 -0.025020
v 0.028811 0.999941 -0.000377
v 0.013369 1.007922 0.017566
v 0.010111 1.008556 -0.019632
v -0.012459 1.008407 -0.018230
v -0.021898 1.007975 0.002072
v -0.009595 1.008848 0.019994
v 0.012083 1.000476 0.025213
v 0.015311 0.999929 0.025662
v 0.021695 1.008994 -0.002549
v -0.029322 0.999847 -0.000430
v 0.030082 0.000000 0.000000
v 0.015041 -0.000000 0.026051
v 0.015041 0.000000 -0.026051
v -0.015041 0.000000 -0.026051
v -0.030082 0.000000 0.000000
v -0.015041 -0.000000 0.026051
v 0.013074 3.490581 -1.146589
v 0.012722 3.489959 -0.364444
v -0.007484 3.487208 -0.364540
v -0.009372 3.489064 -1.146809
v -0.020784 3.499141 -0.334091
v -0.019162 3.499407 -1.146331
v -0.021676 3.509181 -1.146737
v -0.018663 3.515031 -0.321697
v -0.013264 3.526816 -1.146480
v -0.006529 3.528239 -0.354610
v 0.005810 3.529547 -0.398635
v 0.016858 3.522223 -1.146151
v 0.017928 3.519054 -0.350166
v 0.006867 3.529108 -1.146665
v 0.021484 3.501713 -0.307691
v -0.000331 3.464828 -0.269126
v -0.014780 3.469242 -0.264083
v 0.005857 3.513325 -0.280624
v 0.013827 3.468292 -0.265312
v -0.021110 3.440571 -0.178974
v -0.018381 3.480141 -0.219802
v 0.004292 3.482918 -0.203666
v 0.018806 3.468845 -0.200233
v 0.021522 3.440586 -0.176643
v -0.011324 3.429550 -0.195449
v -0.008446 3.462708 -0.173202
v 0.013491 3.429977 -0.192214
v -0.010906 3.397202 -0.150649
v -0.020241 3.409828 -0.123138
v 0.000000 3.428131 -0.123260
v 0.016240 3.390472 -0.093872
v 0.008422 3.377991 -0.131019
v -0.015990 3.362213 -0.111373
v -0.008473 3.384476 -0.082672
v 0.021993 3.320461 -0.055232
v -0.013398 3.292297 -0.063337
v -0.021920 3.281792 -0.033443
v -0.017514 3.334152 -0.053451
v 0.002880 3.336700 -0.045005
v 0.011318 3.313354 -0.079231
v -0.002886 3.284157 -0.016315
v 0.016676 3.244741 -0.006904
v 0.011303 3.265625 -0.053375
v -0.013404 3.190031 -0.025266
v -0.021497 3.199425 -0.006599
v -0.008461 3.227703 0.003195
v 0.021174 3.155817 0.002377
v 0.011308 3.214703 -0.034583
v -0.015848 3.143218 0.014760
v 0.003113 3.149034 0.020489
v 0.014103 3.155123 0.014857
v 0.018919 3.145662 -0.011445
v 0.008276 3.144056 -0.021074
v -0.008248 3.107053 -0.020304
v 0.031512 3.537755 -1.166232
v -0.031226 3.538465 -1.166223
v 0.021565 3.508605 -1.146223
v 0.031309 3.479027 -1.166311
v -0.019535 3.495954 -1.148653
v -0.032028 3.479365 -1.166452
v -0.062756 3.478762 -1.255496
v -0.062304 3.538762 -1.247791
v -0.002573 3.538762 -1.368904
v -0.048684 3.538763 -1.344749
v 0.062915 3.538762 -1.252452
v 0.046895 3.538762 -1.347371
v 0.062247 3.478763 -1.249506
v 0.002573 3.478762 -1.368904
v 0.048683 3.478762 -1.344748
v -0.046895 3.478762 -1.347371
vn -0.659700 0.692500 -0.292000
vn 0.102700 0.704000 0.702800
vn -0.722700 0.548100 -0.421000
vn 0.635400 0.629700 -0.446900
vn 0.757700 0.493100 -0.427500
vn 0.690300 0.628600 0.358200
vn 0.768400 0.537900 0.346700
vn -0.649600 0.637100 0.414900
vn -0.733600 0.545100 0.405800
vn 0.023600 0.714200 0.699500
vn -0.057000 0.500100 -0.864100
vn -0.005100 0.609500 -0.792800
vn -0.031200 0.469300 0.882500
vn 0.866000 0.001300 0.500000
vn 0.887800 -0.000100 0.460300
vn 0.866000 0.000600 -0.500000
vn 0.872300 0.000900 -0.489000
vn -0.007900 0.001300 -1.000000
vn 0.000000 0.001000 -1.000000
vn -0.866000 0.000400 -0.500000
vn -0.863900 0.000600 -0.503700
vn -0.866000 0.000400 0.500000
vn -0.874700 0.000900 0.484700
vn 0.000000 0.000400 1.000000
vn -0.137200 0.004500 0.990500
vn -0.023900 0.001500 0.999700
vn 0.000000 -1.000000 -0.000000
vn 0.802000 -0.597300 -0.000100
vn 0.134900 -0.990900 -0.000700
vn 0.067400 -0.997700 -0.002500
vn -0.668000 -0.744200 -0.000200
vn -0.968500 -0.249200 -0.002000
vn -0.726300 -0.687400 -0.001700
vn -0.902600 0.430500 0.000200
vn -0.991500 0.130300 0.002700
vn -0.730200 0.683200 0.005000
vn -0.108500 0.994100 -0.000900
vn -0.113100 0.993600 -0.000700
vn 0.649600 0.760200 0.002200
vn 0.567400 0.823400 0.000300
vn 0.945100 0.326700 0.000000
vn 0.978700 0.205100 0.001800
vn 0.904700 -0.426100 -0.003400
vn 0.329800 0.936400 0.120200
vn -0.346700 -0.918600 -0.189500
vn -0.832700 -0.531400 -0.155500
vn -0.338900 0.909700 0.240100
vn 0.327000 0.935500 0.133800
vn 0.771500 0.609100 0.184100
vn 0.944700 -0.317900 -0.080000
vn 0.284900 -0.935800 -0.207700
vn 0.132200 -0.962800 -0.235700
vn -0.466100 -0.827400 -0.313400
vn -0.993900 0.103800 0.037100
vn -0.993100 0.110300 0.040500
vn -0.431900 0.852900 0.293200
vn -0.347900 0.874300 0.338400
vn 0.627500 0.719700 0.297100
vn 0.783300 0.588800 0.199600
vn 0.985300 0.154700 0.071900
vn 0.849900 -0.477400 -0.223000
vn -0.399900 -0.802000 -0.443700
vn -0.867600 -0.448200 -0.215500
vn -0.382900 0.835500 0.394200
vn 0.899700 -0.388400 -0.199400
vn 0.323300 -0.838800 -0.438200
vn 0.070600 -0.903700 -0.422200
vn -0.208800 -0.793800 -0.571200
vn -0.883700 -0.383300 -0.268500
vn -0.974000 0.191700 0.120700
vn -0.780000 0.513100 0.358300
vn -0.566300 0.629800 0.531800
vn 0.040600 0.824700 0.564100
vn 0.543000 0.680200 0.492400
vn 0.601000 0.636500 0.483500
vn 0.931600 0.281400 0.229800
vn 0.907200 -0.354700 -0.226200
vn 0.096500 -0.762500 -0.639800
vn -0.058400 -0.741600 -0.668200
vn -0.667900 -0.510700 -0.541400
vn -0.994400 -0.098300 -0.038700
vn -0.557900 0.620600 0.551000
vn 0.176200 0.651700 0.737700
vn 0.971200 0.171200 0.165600
vn 0.681800 -0.518700 -0.515800
vn -0.211400 -0.616900 -0.758100
vn -0.046000 -0.566800 -0.822500
vn -0.894900 -0.274800 -0.351700
vn -0.965800 -0.140100 -0.218100
vn -0.962900 0.163100 0.214800
vn -0.766500 0.419900 0.486000
vn -0.382200 0.514400 0.767700
vn 0.185600 0.635200 0.749700
vn 0.672600 0.399200 0.623100
vn 0.912700 -0.229800 -0.337900
vn -0.157700 -0.470300 -0.868300
vn -0.655900 0.317000 0.685100
vn -0.386800 0.474300 0.790900
vn 0.414300 0.400700 0.817200
vn 0.662500 0.369400 0.651600
vn 0.916700 -0.190600 -0.351300
vn 0.004500 -0.346200 -0.938100
vn -0.005000 -0.348900 -0.937200
vn -0.943900 -0.115200 -0.309500
vn -0.931300 -0.117200 -0.344800
vn -0.808600 0.178600 0.560600
vn -0.658000 0.303200 0.689300
vn 0.168200 0.307100 0.936700
vn 0.972800 0.072200 0.220100
vn 0.842800 -0.181500 -0.506700
vn 0.823000 -0.196600 -0.532900
vn -0.187900 -0.176700 -0.966200
vn -0.782100 0.151100 0.604600
vn -0.329300 0.156300 0.931200
vn 0.217500 0.240000 0.946100
vn 0.350400 0.211500 0.912400
vn 0.863800 0.095300 0.494700
vn 0.980400 0.043700 -0.192100
vn 0.675200 -0.166400 -0.718600
vn 0.076300 -0.054800 -0.995600
vn -0.928500 -0.079400 -0.362600
vn -0.045000 -0.000700 -0.999000
vn 0.670900 0.000100 -0.741600
vn 0.827700 -0.001300 -0.561200
vn 0.924000 -0.000700 0.382400
vn 0.870000 0.000300 0.493000
vn 0.455700 0.001000 0.890100
vn 0.105100 -0.000900 0.994500
vn -0.289600 0.001500 0.957100
vn -0.824400 -0.001000 0.566000
vn -0.966000 0.001200 0.258600
vn -0.906800 -0.001500 -0.421600
vn -0.716400 0.000700 -0.697700
vn -0.062000 -0.000900 -0.998100
vn -0.088300 0.820700 0.564500
vn 0.010400 0.909700 0.415100
vn 0.367200 0.586700 0.721800
vn 0.897600 -0.003700 0.440800
vn 0.689700 0.234800 0.685000
vn -0.891700 0.010300 0.452600
vn -0.619400 0.284800 0.731600
vn 0.986900 0.000600 -0.161500
vn -0.871400 -0.205600 0.445400
vn -0.005800 -0.894000 0.448100
vn -0.567900 -0.363600 0.738400
vn 0.051500 -0.840200 0.539800
vn 0.000000 1.000000 0.000000
vn 0.004200 1.000000 0.002100
vn 0.011300 0.999900 0.003100
vn -0.012600 0.999900 0.007100
vn -0.003600 -1.000000 0.001800
vn -0.005300 -1.000000 0.002100
vn 0.007300 -1.000000 0.004200
vn 0.939600 -0.003700 0.342200
vn 0.937300 0.006700 0.348500
vn -0.934400 0.011300 0.356100
vn -0.944700 -0.034800 0.326200
vn 0.398900 0.034200 -0.916400
vn 0.463900 -0.024900 -0.885500
vn -0.463900 0.024900 -0.885500
vn -0.398900 -0.034200 -0.916400
vn -0.990000 0.025300 -0.139100
vn -0.985200 -0.021900 -0.170100
vn 0.985800 0.022100 -0.166400
vn 0.989900 -0.017900 -0.141000
vn 0.606100 -0.300500 0.736400
usemtl None
s off
f 7//1 13//1 8//1
f 5//2 9//2 10//2
f 13//3 7//3 1//3
f 6//4 12//4 3//4
f 3//5 12//5 4//5
f 11//6 4//6 12//6
f 11//7 12//7 5//7
f 8//8 2//8 9//8
f 2//9 8//9 13//9
f 10//10 11//10 5//10
f 6//11 3//11 7//11
f 7//12 3//12 1//12
f 2//13 10//13 9//13
f 14//14 4//14 15//14
f 15//15 4//15 11//15
f 16//16 3//16 14//16
f 14//17 3//17 4//17
f 1//18 3//18 17//18
f 17//19 3//19 16//19
f 17//20 18//20 13//20
f 17//21 13//21 1//21
f 19//22 2//22 18//22
f 18//23 2//23 13//23
f 19//24 15//24 11//24
f 19//25 11//25 10//25
f 19//26 10//26 2//26
f 19//27 18//27 15//27
f 15//27 18//27 17//27
f 15//27 17//27 14//27
f 14//27 17//27 16//27
f 21//28 20//28 34//28
f 22//29 20//29 21//29
f 22//30 23//30 20//30
f 24//31 23//31 22//31
f 24//32 26//32 25//32
f 24//33 25//33 23//33
f 26//34 27//34 28//34
f 27//35 26//35 24//35
f 29//36 28//36 27//36
f 30//37 28//37 29//37
f 30//38 33//38 28//38
f 32//39 31//39 30//39
f 30//40 31//40 33//40
f 32//41 76//41 31//41
f 34//42 76//42 32//42
f 76//43 34//43 20//43
f 30//44 29//44 32//44
f 22//45 35//45 36//45
f 22//46 36//46 24//46
f 29//47 27//47 37//47
f 29//48 37//48 32//48
f 32//49 37//49 34//49
f 21//50 34//50 38//50
f 21//51 38//51 35//51
f 21//52 35//52 22//52
f 24//53 36//53 39//53
f 24//54 39//54 27//54
f 27//55 39//55 40//55
f 27//56 40//56 37//56
f 37//57 40//57 41//57
f 37//58 41//58 42//58
f 37//59 42//59 34//59
f 34//60 42//60 43//60
f 34//61 43//61 38//61
f 35//62 44//62 36//62
f 36//63 44//63 39//63
f 40//64 45//64 41//64
f 38//65 43//65 46//65
f 38//66 46//66 35//66
f 35//67 46//67 44//67
f 44//68 51//68 47//68
f 44//69 47//69 39//69
f 40//70 39//70 48//70
f 40//71 48//71 45//71
f 45//72 48//72 49//72
f 45//73 49//73 41//73
f 41//74 49//74 42//74
f 42//75 49//75 50//75
f 42//76 50//76 43//76
f 46//77 43//77 51//77
f 46//78 51//78 44//78
f 47//79 51//79 52//79
f 47//80 52//80 39//80
f 39//81 52//81 48//81
f 48//82 53//82 49//82
f 49//83 53//83 50//83
f 43//84 50//84 54//84
f 43//85 54//85 51//85
f 51//86 59//86 52//86
f 52//87 59//87 55//87
f 52//88 55//88 56//88
f 52//89 56//89 48//89
f 48//90 56//90 57//90
f 48//91 57//91 53//91
f 53//92 57//92 58//92
f 53//93 58//93 50//93
f 50//94 58//94 54//94
f 54//95 59//95 51//95
f 59//96 62//96 55//96
f 57//97 56//97 60//97
f 57//98 60//98 58//98
f 58//99 60//99 61//99
f 58//100 61//100 54//100
f 59//101 54//101 62//101
f 62//102 67//102 55//102
f 55//103 67//103 63//103
f 55//104 63//104 56//104
f 56//105 63//105 64//105
f 56//106 64//106 65//106
f 56//107 65//107 60//107
f 60//108 65//108 61//108
f 54//109 61//109 66//109
f 54//110 66//110 62//110
f 62//111 66//111 67//111
f 67//112 72//112 63//112
f 64//113 68//113 65//113
f 65//114 68//114 69//114
f 65//115 69//115 61//115
f 61//116 69//116 70//116
f 61//117 70//117 66//117
f 66//118 71//118 67//118
f 67//119 71//119 72//119
f 72//120 73//120 63//120
f 63//121 73//121 64//121
f 6//122 73//122 72//122
f 71//123 6//123 72//123
f 71//124 12//124 6//124
f 66//125 5//125 12//125
f 70//126 5//126 66//126
f 69//127 5//127 70//127
f 69//128 9//128 5//128
f 68//129 9//129 69//129
f 68//130 8//130 9//130
f 64//131 8//131 68//131
f 64//132 7//132 8//132
f 73//133 7//133 64//133
f 73//134 6//134 7//134
f 28//135 33//135 75//135
f 33//136 74//136 75//136
f 31//137 74//137 33//137
f 76//138 77//138 74//138
f 74//139 31//139 76//139
f 26//140 75//140 79//140
f 26//141 28//141 75//141
f 12//142 71//142 66//142
f 25//143 26//143 78//143
f 23//144 79//144 77//144
f 78//145 26//145 79//145 23//145 25//145
f 20//146 23//146 77//146
f 82//147 83//147 81//147
f 82//148 81//148 75//148
f 82//149 75//149 74//149
f 82//150 74//150 84//150
f 82//147 84//147 85//147
f 87//27 88//27 86//27
f 87//151 86//151 77//151
f 87//152 77//152 79//152
f 87//27 80//27 89//27
f 87//153 79//153 80//153
f 84//154 74//154 77//154
f 84//155 77//155 86//155
f 79//156 75//156 81//156
f 79//157 81//157 80//157
f 87//158 82//158 85//158
f 87//159 85//159 88//159
f 89//160 83//160 82//160
f 89//161 82//161 87//161
f 80//162 81//162 83//162
f 80//163 83//163 89//163
f 88//164 85//164 84//164
f 88//165 84//165 86//165
f 77//166 76//166 20//166
